<svg width="129" height="30" viewBox="0 0 129 30" fill="none" xmlns="http://www.w3.org/2000/svg">
<path d="M122.765 23.5778C122.099 23.5778 121.425 23.4474 120.744 23.1865C120.062 22.9111 119.432 22.5271 118.852 22.0343C118.287 21.5271 117.83 20.9256 117.483 20.23C117.149 19.5198 116.983 18.73 116.983 17.8604C116.983 17.0633 117.135 16.3169 117.439 15.6213C117.744 14.9256 118.157 14.3169 118.678 13.7952C119.215 13.2589 119.823 12.8387 120.504 12.5343C121.2 12.23 121.939 12.0778 122.722 12.0778C123.794 12.0778 124.765 12.3387 125.635 12.8604C126.504 13.3676 127.2 14.056 127.722 14.9256C128.244 15.7952 128.504 16.7662 128.504 17.8387C128.504 18.7517 128.33 19.5633 127.983 20.2734C127.635 20.9836 127.178 21.585 126.613 22.0778C126.048 22.5705 125.425 22.9401 124.744 23.1865C124.077 23.4474 123.417 23.5778 122.765 23.5778ZM122.722 19.5995C122.939 19.5995 123.186 19.5488 123.461 19.4474C123.751 19.3314 123.997 19.143 124.2 18.8821C124.417 18.6213 124.526 18.2662 124.526 17.8169C124.526 17.4546 124.446 17.143 124.287 16.8821C124.142 16.6213 123.932 16.4184 123.657 16.2734C123.381 16.1285 123.062 16.056 122.7 16.056C122.381 16.056 122.091 16.1358 121.83 16.2952C121.57 16.4401 121.359 16.6503 121.2 16.9256C121.041 17.1865 120.961 17.4908 120.961 17.8387C120.961 18.2734 121.062 18.6213 121.265 18.8821C121.468 19.143 121.707 19.3314 121.983 19.4474C122.258 19.5488 122.504 19.5995 122.722 19.5995Z" fill="#F29F05"/>
<path d="M113.924 23.3821C113.156 23.3821 112.489 23.2952 111.924 23.1213C111.359 22.9474 110.887 22.6792 110.511 22.3169C110.148 21.9546 109.873 21.4981 109.685 20.9474C109.511 20.3966 109.424 19.7517 109.424 19.0126V10.5778C109.424 10.2445 109.453 9.9401 109.511 9.66474C109.569 9.37489 109.735 9.143 110.011 8.96909C110.286 8.78068 110.75 8.68648 111.402 8.68648C112.04 8.68648 112.496 8.78793 112.772 8.99083C113.047 9.17924 113.214 9.42561 113.272 9.72996C113.33 10.0343 113.359 10.3459 113.359 10.6647V18.8169C113.359 18.9763 113.366 19.114 113.38 19.23C113.409 19.3314 113.445 19.4111 113.489 19.4691C113.532 19.5271 113.59 19.5705 113.663 19.5995C113.735 19.6285 113.83 19.643 113.945 19.643C114.322 19.643 114.656 19.672 114.945 19.73C115.25 19.7879 115.482 19.9401 115.641 20.1865C115.815 20.4329 115.902 20.8459 115.902 21.4256C115.902 22.0778 115.801 22.5416 115.598 22.8169C115.395 23.0923 115.141 23.2517 114.837 23.2952C114.532 23.3532 114.228 23.3821 113.924 23.3821ZM108.967 12.4691H111.511L114.511 12.3604C114.83 12.3604 115.134 12.3894 115.424 12.4474C115.728 12.5053 115.974 12.672 116.163 12.9474C116.366 13.2227 116.467 13.6937 116.467 14.3604C116.467 14.9691 116.366 15.4111 116.163 15.6865C115.974 15.9618 115.728 16.1358 115.424 16.2082C115.134 16.2807 114.822 16.3169 114.489 16.3169L111.728 16.2517H108.88C108.387 16.2227 108.047 16.0633 107.859 15.7734C107.67 15.4836 107.576 15.0053 107.576 14.3387C107.576 13.7155 107.692 13.2517 107.924 12.9474C108.156 12.6285 108.503 12.4691 108.967 12.4691Z" fill="#F29F05"/>
<path d="M100.584 23.3821C99.9315 23.3821 99.4678 23.2879 99.1924 23.0995C98.917 22.8966 98.7504 22.643 98.6924 22.3387C98.6489 22.0198 98.6272 21.701 98.6272 21.3821V14.2952C98.6272 13.9618 98.6562 13.6503 98.7141 13.3604C98.7721 13.056 98.9388 12.8097 99.2141 12.6213C99.4895 12.4329 99.9533 12.3387 100.605 12.3387C101.243 12.3387 101.692 12.4256 101.953 12.5995C102.229 12.7734 102.395 12.9691 102.453 13.1865C102.511 13.3894 102.54 13.5488 102.54 13.6647L102.192 13.5343C102.192 13.5343 102.25 13.4691 102.366 13.3387C102.482 13.2082 102.649 13.056 102.866 12.8821C103.098 12.7082 103.366 12.556 103.671 12.4256C103.99 12.2952 104.345 12.23 104.736 12.23C104.866 12.23 105.026 12.2445 105.214 12.2734C105.417 12.2879 105.627 12.3242 105.845 12.3821C106.076 12.4401 106.287 12.5271 106.475 12.643C106.678 12.7589 106.837 12.9111 106.953 13.0995C107.084 13.2879 107.149 13.5198 107.149 13.7952C107.149 14.5198 106.99 15.1358 106.671 15.643C106.366 16.1503 105.961 16.4039 105.453 16.4039C105.178 16.4039 104.982 16.3894 104.866 16.3604C104.75 16.3169 104.663 16.2807 104.605 16.2517C104.562 16.2082 104.504 16.172 104.432 16.143C104.374 16.0995 104.258 16.0778 104.084 16.0778C103.866 16.0778 103.663 16.1068 103.475 16.1647C103.301 16.2082 103.142 16.2807 102.997 16.3821C102.866 16.4836 102.765 16.6068 102.692 16.7517C102.62 16.8821 102.584 17.0271 102.584 17.1865V21.4256C102.584 21.7445 102.555 22.056 102.497 22.3604C102.439 22.6647 102.272 22.9111 101.997 23.0995C101.721 23.2879 101.25 23.3821 100.584 23.3821Z" fill="#F29F05"/>
<path d="M92.602 23.6213C91.5151 23.6213 90.5948 23.4474 89.8412 23.0995C89.0875 22.7372 88.4789 22.2734 88.0151 21.7082C87.5513 21.1285 87.2107 20.5053 86.9933 19.8387C86.7759 19.172 86.6673 18.5271 86.6673 17.9039C86.6673 16.7589 86.9209 15.7517 87.4281 14.8821C87.9354 14.0126 88.6383 13.3314 89.5368 12.8387C90.4354 12.3459 91.4644 12.0995 92.6238 12.0995C93.5223 12.0995 94.2905 12.2445 94.9281 12.5343C95.5658 12.8242 96.0803 13.1937 96.4716 13.643C96.8774 14.0923 97.1745 14.5705 97.3629 15.0778C97.5513 15.585 97.6455 16.056 97.6455 16.4908C97.6455 17.3169 97.4426 17.9474 97.0368 18.3821C96.631 18.8169 96.1093 19.0343 95.4716 19.0343H90.8412C90.8991 19.2662 91.0151 19.4691 91.189 19.643C91.3774 19.8024 91.6093 19.9329 91.8847 20.0343C92.16 20.1213 92.4571 20.1647 92.776 20.1647C93.0948 20.1647 93.3774 20.1503 93.6238 20.1213C93.8702 20.0778 94.0803 20.0271 94.2542 19.9691C94.4426 19.9111 94.6093 19.8532 94.7542 19.7952C94.9136 19.7372 95.0513 19.6937 95.1673 19.6647C95.2977 19.6213 95.4209 19.5995 95.5368 19.5995C95.7977 19.5995 96.0368 19.6865 96.2542 19.8604C96.4716 20.0343 96.6673 20.2952 96.8412 20.643C96.9426 20.8314 97.0151 21.0126 97.0586 21.1865C97.102 21.3459 97.1238 21.4981 97.1238 21.643C97.1238 22.0778 96.9426 22.4401 96.5803 22.73C96.2325 23.0198 95.7252 23.2372 95.0586 23.3821C94.3919 23.5416 93.5731 23.6213 92.602 23.6213ZM90.8412 16.9908H93.276C93.4789 16.9908 93.6238 16.9474 93.7107 16.8604C93.8122 16.7734 93.8629 16.643 93.8629 16.4691C93.8629 16.2807 93.8049 16.1213 93.689 15.9908C93.5875 15.8604 93.4426 15.7662 93.2542 15.7082C93.0658 15.6358 92.8412 15.5995 92.5803 15.5995C92.2325 15.5995 91.9281 15.672 91.6673 15.8169C91.4064 15.9474 91.2035 16.1213 91.0586 16.3387C90.9281 16.5416 90.8557 16.7589 90.8412 16.9908Z" fill="#F29F05"/>
<path d="M80.8008 23.5995C80.2355 23.5995 79.6051 23.5053 78.9094 23.3169C78.2138 23.143 77.5109 22.8604 76.8008 22.4691C76.1051 22.0778 75.4602 21.5705 74.866 20.9474C74.2863 20.3242 73.8152 19.5778 73.4529 18.7082C73.1051 17.8387 72.9312 16.8314 72.9312 15.6865C72.9312 14.585 73.1051 13.614 73.4529 12.7734C73.8152 11.9329 74.2863 11.2082 74.866 10.5995C75.4457 9.99083 76.0834 9.49808 76.779 9.12127C77.4892 8.74445 78.1993 8.46909 78.9094 8.29518C79.6196 8.10677 80.2718 8.01257 80.866 8.01257C81.6051 8.01257 82.2573 8.10677 82.8225 8.29518C83.3877 8.46909 83.8442 8.6575 84.1921 8.8604C84.5544 9.0488 84.779 9.17199 84.866 9.22996C85.1558 9.41837 85.4239 9.62851 85.6703 9.86039C85.9312 10.0778 86.0616 10.3749 86.0616 10.7517C86.0616 10.9401 86.0182 11.1358 85.9312 11.3387C85.8587 11.5416 85.7428 11.7517 85.5834 11.9691C85.2935 12.3749 85.0181 12.672 84.7573 12.8604C84.5109 13.0488 84.2645 13.143 84.0182 13.143C83.8297 13.143 83.6486 13.0995 83.4747 13.0126C83.3008 12.9256 83.0906 12.8024 82.8442 12.643C82.7428 12.5705 82.6124 12.4908 82.4529 12.4039C82.2935 12.3024 82.0761 12.2155 81.8008 12.143C81.5254 12.056 81.1631 12.0126 80.7138 12.0126C80.337 12.0126 79.924 12.085 79.4747 12.23C79.0399 12.3604 78.6268 12.5778 78.2355 12.8821C77.8442 13.172 77.5254 13.5633 77.279 14.056C77.0326 14.5343 76.9095 15.114 76.9095 15.7952C76.9095 16.4908 77.0326 17.0778 77.279 17.556C77.5399 18.0343 77.866 18.4256 78.2573 18.73C78.6486 19.0198 79.0616 19.2372 79.4964 19.3821C79.9457 19.5126 80.3515 19.5778 80.7138 19.5778C81.0906 19.5778 81.4094 19.5488 81.6703 19.4908C81.9312 19.4184 82.1631 19.3242 82.366 19.2082C82.5834 19.0923 82.779 18.9763 82.9529 18.8604C83.1124 18.7445 83.2863 18.643 83.4747 18.556C83.6631 18.4691 83.8515 18.4256 84.0399 18.4256C84.2863 18.4256 84.5326 18.5271 84.779 18.73C85.0254 18.9329 85.2863 19.2445 85.5616 19.6647C85.721 19.9111 85.837 20.143 85.9095 20.3604C85.9964 20.5633 86.0399 20.7517 86.0399 20.9256C86.0399 21.2879 85.9095 21.5778 85.6486 21.7952C85.4022 22.0126 85.1341 22.2082 84.8442 22.3821C84.7428 22.4401 84.5254 22.5705 84.1921 22.7734C83.8587 22.9763 83.4094 23.1647 82.8442 23.3387C82.279 23.5126 81.5979 23.5995 80.8008 23.5995Z" fill="#F29F05"/>
<path d="M69.8723 23.3821C69.1041 23.3821 68.4375 23.2952 67.8723 23.1213C67.307 22.9474 66.836 22.6792 66.4592 22.3169C66.0969 21.9546 65.8215 21.4981 65.6331 20.9474C65.4592 20.3966 65.3723 19.7517 65.3723 19.0126V10.5778C65.3723 10.2445 65.4012 9.9401 65.4592 9.66474C65.5172 9.37489 65.6838 9.143 65.9592 8.96909C66.2346 8.78068 66.6983 8.68648 67.3505 8.68648C67.9882 8.68648 68.4447 8.78793 68.7201 8.99083C68.9954 9.17924 69.1621 9.42561 69.2201 9.72996C69.2781 10.0343 69.307 10.3459 69.307 10.6647V18.8169C69.307 18.9763 69.3143 19.114 69.3288 19.23C69.3578 19.3314 69.394 19.4111 69.4375 19.4691C69.4809 19.5271 69.5389 19.5705 69.6114 19.5995C69.6838 19.6285 69.778 19.643 69.894 19.643C70.2708 19.643 70.6041 19.672 70.894 19.73C71.1983 19.7879 71.4302 19.9401 71.5896 20.1865C71.7636 20.4329 71.8505 20.8459 71.8505 21.4256C71.8505 22.0778 71.7491 22.5416 71.5462 22.8169C71.3433 23.0923 71.0896 23.2517 70.7853 23.2952C70.4809 23.3532 70.1766 23.3821 69.8723 23.3821ZM64.9157 12.4691H67.4592L70.4592 12.3604C70.778 12.3604 71.0824 12.3894 71.3723 12.4474C71.6766 12.5053 71.923 12.672 72.1114 12.9474C72.3143 13.2227 72.4157 13.6937 72.4157 14.3604C72.4157 14.9691 72.3143 15.4111 72.1114 15.6865C71.923 15.9618 71.6766 16.1358 71.3723 16.2082C71.0824 16.2807 70.7708 16.3169 70.4375 16.3169L67.6766 16.2517H64.8288C64.336 16.2227 63.9954 16.0633 63.807 15.7734C63.6186 15.4836 63.5244 15.0053 63.5244 14.3387C63.5244 13.7155 63.6404 13.2517 63.8723 12.9474C64.1041 12.6285 64.452 12.4691 64.9157 12.4691Z" fill="white"/>
<path d="M58.1464 23.6213C57.0594 23.6213 56.1391 23.4474 55.3855 23.0995C54.6319 22.7372 54.0232 22.2734 53.5594 21.7082C53.0956 21.1285 52.7551 20.5053 52.5377 19.8387C52.3203 19.172 52.2116 18.5271 52.2116 17.9039C52.2116 16.7589 52.4652 15.7517 52.9725 14.8821C53.4797 14.0126 54.1826 13.3314 55.0812 12.8387C55.9797 12.3459 57.0087 12.0995 58.1681 12.0995C59.0667 12.0995 59.8348 12.2445 60.4725 12.5343C61.1101 12.8242 61.6246 13.1937 62.0159 13.643C62.4217 14.0923 62.7188 14.5705 62.9072 15.0778C63.0956 15.585 63.1898 16.056 63.1898 16.4908C63.1898 17.3169 62.9869 17.9474 62.5812 18.3821C62.1754 18.8169 61.6536 19.0343 61.0159 19.0343H56.3855C56.4435 19.2662 56.5594 19.4691 56.7333 19.643C56.9217 19.8024 57.1536 19.9329 57.429 20.0343C57.7043 20.1213 58.0014 20.1647 58.3203 20.1647C58.6391 20.1647 58.9217 20.1503 59.1681 20.1213C59.4145 20.0778 59.6246 20.0271 59.7985 19.9691C59.9869 19.9111 60.1536 19.8532 60.2985 19.7952C60.458 19.7372 60.5956 19.6937 60.7116 19.6647C60.842 19.6213 60.9652 19.5995 61.0812 19.5995C61.342 19.5995 61.5812 19.6865 61.7985 19.8604C62.0159 20.0343 62.2116 20.2952 62.3855 20.643C62.4869 20.8314 62.5594 21.0126 62.6029 21.1865C62.6464 21.3459 62.6681 21.4981 62.6681 21.643C62.6681 22.0778 62.4869 22.4401 62.1246 22.73C61.7768 23.0198 61.2696 23.2372 60.6029 23.3821C59.9362 23.5416 59.1174 23.6213 58.1464 23.6213ZM56.3855 16.9908H58.8203C59.0232 16.9908 59.1681 16.9474 59.2551 16.8604C59.3565 16.7734 59.4072 16.643 59.4072 16.4691C59.4072 16.2807 59.3493 16.1213 59.2333 15.9908C59.1319 15.8604 58.9869 15.7662 58.7985 15.7082C58.6101 15.6358 58.3855 15.5995 58.1246 15.5995C57.7768 15.5995 57.4725 15.672 57.2116 15.8169C56.9507 15.9474 56.7478 16.1213 56.6029 16.3387C56.4725 16.5416 56.4 16.7589 56.3855 16.9908Z" fill="white"/>
<path d="M41.6958 23.3604C41.0436 23.3604 40.5798 23.2662 40.3045 23.0778C40.0291 22.8749 39.8624 22.6213 39.8045 22.3169C39.7465 21.9981 39.7175 21.6792 39.7175 21.3604V10.143C39.7175 9.82416 39.7465 9.51257 39.8045 9.20822C39.8624 8.90387 40.0291 8.6575 40.3045 8.46909C40.5798 8.26619 41.0509 8.16474 41.7175 8.16474H46.0436C46.5943 8.16474 47.1885 8.28068 47.8262 8.51257C48.4639 8.72996 49.0653 9.07054 49.6306 9.53431C50.2103 9.99808 50.6813 10.5778 51.0436 11.2734C51.4059 11.9691 51.5871 12.7952 51.5871 13.7517C51.5871 14.6937 51.4059 15.5126 51.0436 16.2082C50.6813 16.9039 50.2103 17.4836 49.6306 17.9474C49.0653 18.3966 48.4639 18.7372 47.8262 18.9691C47.1885 19.1865 46.5871 19.2952 46.0219 19.2952H43.6958V21.3821C43.6958 21.701 43.6668 22.0126 43.6088 22.3169C43.5509 22.6213 43.3842 22.8749 43.1088 23.0778C42.8335 23.2662 42.3624 23.3604 41.6958 23.3604ZM43.6958 15.3169H46.0436C46.232 15.3169 46.4494 15.2734 46.6958 15.1865C46.9422 15.085 47.1596 14.9184 47.348 14.6865C47.5364 14.4546 47.6306 14.1358 47.6306 13.73C47.6306 13.4256 47.5581 13.1575 47.4132 12.9256C47.2682 12.6792 47.0726 12.4908 46.8262 12.3604C46.5943 12.2155 46.3262 12.143 46.0219 12.143H43.6958V15.3169Z" fill="white"/>
<path d="M19.3614 1.47458C20.5173 1.52632 21.544 1.98393 22.5309 2.52711C22.8492 2.7022 23.1576 2.89519 23.4521 3.10411C24.0331 3.51597 24.5623 3.99547 25.0358 4.54063C25.2428 4.77939 28.3407 7.74397 29.3335 8.78257C30.1313 9.61822 30.9172 10.4897 31.6713 11.3612C32.3757 12.1749 33.1297 12.9429 33.6073 13.9298C34.5404 15.8598 34.1962 18.0941 32.7139 19.5207C31.1898 20.9891 28.852 20.6031 27.5468 19.5963C27.3399 19.4352 27.314 19.2183 27.316 18.9755C27.3239 17.4853 27.322 15.9931 27.3259 14.5028C27.3259 13.7547 27.2344 13.6652 26.5002 13.701C26.4027 13.4264 26.4724 13.1439 26.4644 12.8653C26.4485 12.2704 26.4565 12.2704 25.8854 12.3878C24.7931 12.6146 23.7107 12.6166 22.6881 12.1093C20.9372 11.2398 19.8787 9.79928 19.5484 7.90314C19.1783 5.7782 19.4031 3.61943 19.3634 1.47458H19.3614ZM24.5862 8.75471C24.5981 8.02451 24.0132 7.44154 23.271 7.43756C22.4871 7.43359 21.8544 8.02451 21.8405 8.77063C21.8265 9.5068 22.3976 10.1077 23.1278 10.1256C23.9077 10.1475 24.5742 9.51874 24.5862 8.75272V8.75471Z" fill="#F29F05"/>
<path d="M19.361 1.47461C19.4008 3.61945 19.174 5.77822 19.5461 7.90317C19.8764 9.7993 20.9349 11.2398 22.6857 12.1093C23.7084 12.6166 24.7888 12.6127 25.8831 12.3878C26.4541 12.2704 26.4462 12.2685 26.4621 12.8654C26.4701 13.1439 26.4004 13.4264 26.4979 13.701C25.0176 14.2601 23.782 15.1714 22.6201 16.2378C21.5516 17.2187 19.936 17.2684 18.9611 16.4805C18.7124 16.2796 18.5035 16.0448 18.3762 15.7523C18.205 15.3564 18.1095 15.0281 18.6269 14.7297C19.1362 14.4332 19.5282 13.9477 19.7868 13.3966C20.1867 12.545 19.6873 11.7671 18.7462 11.7551C18.0996 11.7472 17.455 11.7412 16.8083 11.7452C16.5974 11.7452 16.3746 11.7074 16.1517 11.8685C16.4482 12.0158 16.8242 12.1153 16.6889 12.551C16.6312 12.736 16.4661 12.8355 16.2592 12.8176C15.8135 12.7798 15.8612 12.4236 15.8394 12.1053C15.4215 12.5331 15.3778 13.0066 15.718 13.5518C16.0463 14.077 16.4661 14.5267 16.9854 14.863C17.2043 15.0042 17.258 15.1375 17.1983 15.3862C16.9993 16.2259 16.1517 16.9043 15.2047 16.9899C14.1044 17.0894 13.1772 16.7054 12.4112 15.9573C11.5099 15.0759 10.4991 14.3775 9.33718 13.896C9.13026 13.8104 9.06858 13.6911 9.07455 13.4821C9.08848 13.0842 9.08251 12.6883 9.08649 12.2903C9.24964 12.3142 9.41478 12.3262 9.57594 12.362C10.5489 12.5769 11.5397 12.6107 12.453 12.2287C14.5839 11.3333 15.7717 9.66202 16.0463 7.38586C16.2452 5.74241 16.098 4.08304 16.1219 2.42964C16.1259 2.10135 16.1796 1.76709 16.0682 1.44476C17.1665 1.22789 18.2647 1.18213 19.359 1.4766L19.361 1.47461Z" fill="#F6F7F1"/>
<path d="M18.0939 17.4754C19.3533 18.3011 20.6943 18.4881 22.113 17.9628C22.8372 17.6942 23.448 17.2346 24.0091 16.7114C24.4826 16.2697 25.0019 15.8857 25.557 15.5534C25.8615 15.3703 26.0147 15.3664 26.0067 15.8001C25.9848 16.976 25.9967 18.1539 25.9928 19.3297C25.9928 19.6441 26.0544 19.9167 26.2256 20.2072C26.5877 20.82 26.7528 21.4965 26.7031 22.2306C26.6673 22.7499 26.6852 23.2673 26.5359 23.7786C25.951 25.7901 24.5781 27.0675 22.7039 27.8295C21.1898 28.4463 19.5861 28.689 17.9506 28.695C17.9984 27.9409 17.8352 27.1789 18.0401 26.4308C18.5336 26.6596 19.029 26.7929 19.5204 26.4248C19.7294 26.2676 19.8189 26.0428 19.6975 25.816C19.5543 25.5474 19.3473 25.6688 19.1563 25.7961C18.836 26.011 18.6072 25.8458 18.4779 25.5653C18.3446 25.2748 18.2869 24.9724 18.6629 24.7575C18.8977 24.6242 18.9753 24.3815 18.8877 24.1109C18.8022 23.8542 18.5992 23.7686 18.3505 23.7547C18.2192 23.7468 18.0879 23.7368 17.9566 23.7288C17.9526 21.787 17.9486 19.8431 17.9486 17.9012C17.9486 17.746 17.8929 17.5609 18.0958 17.4714L18.0939 17.4754ZM20.2188 22.2883C20.2228 22.9608 20.7799 23.5319 21.4404 23.5418C22.1408 23.5518 22.8133 22.9031 22.7974 22.2346C22.7815 21.5681 22.1846 20.9931 21.5041 20.9891C20.7918 20.9851 20.2128 21.5701 20.2188 22.2883Z" fill="#F29F05"/>
<path d="M16.0701 1.44279C16.1836 1.76511 16.1298 2.09937 16.1239 2.42766C16.1 4.07907 16.2452 5.74043 16.0483 7.38388C15.7737 9.66004 14.5859 11.3294 12.455 12.2267C11.5417 12.6107 10.5509 12.5749 9.57792 12.36C9.41676 12.3242 9.25162 12.3122 9.08846 12.2884C9.06459 10.8319 8.9671 9.36756 9.12826 7.92507C9.4665 4.88886 11.3487 3.05241 14.0606 1.94816C14.7013 1.68751 15.3618 1.46069 16.0701 1.44478V1.44279ZM13.4697 8.73883C13.4677 8.03052 12.8867 7.45352 12.1744 7.44755C11.4323 7.44158 10.7956 8.06832 10.8075 8.79056C10.8214 9.53071 11.4203 10.1336 12.1286 10.1196C12.8628 10.1037 13.4717 9.47699 13.4677 8.74082L13.4697 8.73883Z" fill="#027373"/>
<path d="M10.8553 26.7552C10.0177 26.1861 9.50034 25.3664 9.10042 24.4671C8.80794 23.8105 8.54133 23.134 8.60301 22.3919C8.66469 21.6338 8.83381 20.8937 9.17404 20.2092C9.32724 19.9008 9.3929 19.5984 9.39091 19.2582C9.38494 18.132 9.39091 17.0059 9.39887 15.8817C9.40285 15.3505 9.44065 15.3266 9.90623 15.6092C10.5449 15.9971 11.1159 16.4786 11.675 16.9681C13.3443 18.4265 15.1509 18.6613 17.1068 17.5869C17.2003 18.2116 17.1724 18.8423 17.1207 19.4651C17.0133 20.7803 16.5119 21.9343 15.519 22.8197C14.8565 23.4106 14.0686 23.8423 13.3225 24.3238C12.3316 24.9625 11.3965 25.6589 10.8553 26.7552ZM13.8139 23.5578C14.4566 23.5578 15.1848 22.8594 15.1629 22.2427C15.145 21.7552 14.6913 21.0787 13.9452 21.0708C13.1155 21.0628 12.5724 21.5284 12.5644 22.2407C12.5564 22.951 13.1334 23.5598 13.8139 23.5598V23.5578Z" fill="#027373"/>
<path d="M10.8556 26.7551C11.3968 25.6608 12.3319 24.9625 13.3228 24.3238C14.0689 23.8423 14.8568 23.4125 15.5194 22.8196C16.5122 21.9342 17.0156 20.7802 17.121 19.465C17.1708 18.8423 17.2006 18.2116 17.1071 17.5868C17.1509 17.5411 17.2006 17.4993 17.2384 17.4475C17.5388 17.0337 17.8234 16.9979 18.092 17.4754C17.889 17.5649 17.9447 17.75 17.9447 17.9052C17.9447 19.8471 17.9507 21.791 17.9527 23.7329C17.6722 23.7408 17.3916 23.7508 17.1111 23.7547C16.8604 23.7587 16.6515 23.8383 16.5579 24.087C16.4605 24.3496 16.5341 24.6123 16.7569 24.7476C17.1588 24.9883 17.131 25.3146 16.9439 25.623C16.7549 25.9334 16.4624 25.9891 16.1481 25.7265C16.0287 25.627 15.8715 25.619 15.7422 25.7464C15.6228 25.8658 15.6168 26.017 15.6686 26.1622C15.7581 26.4169 15.9571 26.5601 16.2118 26.6178C16.8663 26.7691 17.3279 26.4845 17.6901 25.9394C17.8094 26.1085 17.9228 26.2697 18.0363 26.4308C17.8313 27.1789 17.9945 27.941 17.9467 28.695C15.8039 28.695 13.7187 28.4185 11.7947 27.3958C11.4585 27.2167 11.1322 27.0217 10.8536 26.7571L10.8556 26.7551Z" fill="#F6F7F1"/>
<path d="M24.5862 8.75471C24.5742 9.52073 23.9078 10.1475 23.1278 10.1276C22.3976 10.1077 21.8266 9.50688 21.8405 8.77269C21.8545 8.02658 22.4872 7.43565 23.2711 7.43963C24.0152 7.44361 24.5982 8.02857 24.5862 8.75678L24.5862 8.75471ZM24.2739 8.64337C24.2221 8.39665 24.1028 8.20763 23.8162 8.2335C23.5636 8.25539 23.4342 8.42848 23.4541 8.67321C23.472 8.91993 23.6372 9.05324 23.8839 9.05523C24.1485 9.05523 24.2579 8.89406 24.2739 8.64337Z" fill="#0C2A27"/>
<path d="M18.04 26.4328C17.9266 26.2716 17.8131 26.1105 17.6938 25.9413C17.3317 26.4885 16.8701 26.771 16.2155 26.6198C15.9608 26.5601 15.7618 26.4189 15.6723 26.1642C15.6206 26.0189 15.6265 25.8697 15.7459 25.7484C15.8732 25.621 16.0324 25.629 16.1518 25.7285C16.4662 25.9911 16.7586 25.9354 16.9477 25.625C17.1347 25.3166 17.1625 24.9903 16.7606 24.7495C16.5378 24.6162 16.4622 24.3536 16.5617 24.089C16.6552 23.8403 16.8641 23.7607 17.1148 23.7567C17.3953 23.7527 17.6759 23.7428 17.9564 23.7348C18.0877 23.7428 18.219 23.7547 18.3504 23.7607C18.5991 23.7746 18.802 23.8602 18.8876 24.1168C18.9771 24.3874 18.8995 24.6302 18.6627 24.7635C18.2867 24.9764 18.3444 25.2808 18.4777 25.5713C18.607 25.8518 18.8358 26.015 19.1562 25.8021C19.3472 25.6747 19.5541 25.5514 19.6973 25.822C19.8187 26.0488 19.7292 26.2756 19.5203 26.4308C19.0308 26.7989 18.5354 26.6656 18.04 26.4368V26.4328Z" fill="#0C2A27"/>
<path d="M20.2188 22.2883C20.2148 21.5701 20.7938 20.9851 21.5041 20.9891C22.1846 20.9931 22.7815 21.5681 22.7974 22.2346C22.8133 22.9051 22.1408 23.5538 21.4404 23.5418C20.7799 23.5319 20.2228 22.9608 20.2188 22.2883ZM22.4771 22.169C22.4592 21.9143 22.3418 21.7074 22.0712 21.7074C21.8365 21.7074 21.6773 21.8984 21.6733 22.1312C21.6673 22.4018 21.8563 22.549 22.117 22.557C22.3617 22.5649 22.4473 22.3859 22.4791 22.167L22.4771 22.169Z" fill="#0C2A27"/>
<path d="M13.4697 8.73883C13.4717 9.475 12.8649 10.1018 12.1307 10.1177C11.4244 10.1337 10.8235 9.5288 10.8096 8.78865C10.7976 8.06641 11.4343 7.43967 12.1765 7.44564C12.8888 7.45161 13.4677 8.02861 13.4717 8.73692L13.4697 8.73883ZM13.1474 8.63744C13.1036 8.37679 12.9524 8.22558 12.6878 8.22558C12.4212 8.22558 12.3058 8.41659 12.3098 8.6454C12.3137 8.90803 12.4769 9.07317 12.7535 9.05328C12.9962 9.03537 13.1235 8.88217 13.1474 8.63545V8.63744Z" fill="#0C2A27"/>
<path d="M13.8139 23.5578C13.1334 23.5578 12.5566 22.9489 12.5645 22.2386C12.5725 21.5283 13.1157 21.0607 13.9453 21.0687C14.6915 21.0766 15.1451 21.7531 15.163 22.2406C15.1869 22.8573 14.4567 23.5557 13.814 23.5557L13.8139 23.5578ZM14.8526 22.1212C14.8287 21.8645 14.6636 21.7113 14.4368 21.7113C14.1722 21.7113 14.0249 21.9023 14.0508 22.1769C14.0747 22.4316 14.2498 22.5609 14.4845 22.5549C14.7472 22.5509 14.8367 22.356 14.8526 22.1192V22.1212Z" fill="#0C2A27"/>
<path d="M24.2739 8.64337C24.2579 8.89207 24.1485 9.05523 23.8839 9.05523C23.6352 9.05523 23.472 8.91993 23.4541 8.67321C23.4362 8.43048 23.5655 8.25737 23.8162 8.2335C24.1008 8.20763 24.2201 8.39466 24.2739 8.64337Z" fill="#F6F7F1"/>
<path d="M22.4771 22.169C22.4453 22.3879 22.3597 22.5668 22.1149 22.5589C21.8543 22.5509 21.6673 22.4037 21.6712 22.1331C21.6752 21.9003 21.8344 21.7093 22.0692 21.7093C22.3378 21.7093 22.4572 21.9142 22.4751 22.1709L22.4771 22.169Z" fill="#F6F7F1"/>
<path d="M13.1477 8.63737C13.1238 8.88409 12.9965 9.03729 12.7538 9.0552C12.4752 9.07509 12.314 8.90995 12.3101 8.64732C12.3061 8.41851 12.4215 8.2275 12.6881 8.2275C12.9527 8.2275 13.1039 8.37871 13.1477 8.63936V8.63737Z" fill="#F6F7F1"/>
<path d="M14.8526 22.1212C14.8387 22.3579 14.7492 22.553 14.4845 22.557C14.2498 22.561 14.0747 22.4336 14.0508 22.1789C14.0249 21.9044 14.1702 21.7134 14.4368 21.7134C14.6636 21.7134 14.8287 21.8666 14.8526 22.1232V22.1212Z" fill="#F6F7F1"/>
<path d="M33.6945 11.8009C32.7315 10.643 31.685 9.55264 30.6544 8.45435C28.7503 6.42491 26.9098 4.33179 24.773 2.53713C20.6424 -0.936799 14.375 -0.829358 10.354 2.7739C8.82193 4.14875 7.45305 5.68277 6.05632 7.18893C4.60387 8.75479 3.0798 10.259 1.73878 11.9263C0.419639 13.5658 -0.0757832 15.4221 0.320157 17.5073C0.853383 20.3166 3.39616 22.1252 6.19758 21.6656C6.63133 21.594 7.05313 21.4488 7.5406 21.3234C7.39535 22.1551 7.37346 22.9669 7.56049 23.7607C8.14147 26.2398 9.68942 27.943 11.9934 28.892C15.5032 30.3365 19.1064 30.3027 22.6898 29.1726C24.6297 28.5598 26.1856 27.3739 27.1924 25.5574C27.9146 24.2542 28.1295 22.8515 27.9067 21.2975C28.1036 21.3692 28.2111 21.409 28.3185 21.4448C31.1796 22.4237 34.0606 21.0369 35.0216 18.1618C35.8115 15.8021 35.2485 13.6692 33.6945 11.799V11.8009ZM26.7031 22.2306C26.6673 22.7499 26.6852 23.2673 26.5359 23.7786C25.951 25.7901 24.5781 27.0675 22.7039 27.8295C21.1898 28.4463 19.5861 28.689 17.9506 28.695C15.8078 28.695 13.7224 28.4185 11.7965 27.3958C11.4602 27.2167 11.1339 27.0218 10.8554 26.7571C10.0177 26.1881 9.5004 25.3684 9.10048 24.469C8.808 23.8125 8.54139 23.136 8.60307 22.3938C8.66475 21.6358 8.83387 20.8956 9.1741 20.2112C9.3273 19.9028 9.39296 19.6004 9.39097 19.2601C9.385 18.134 9.39097 17.0079 9.39893 15.8837C9.40291 15.3525 9.44071 15.3286 9.90629 15.6111C10.545 15.9991 11.116 16.4806 11.6751 16.9701C13.3444 18.4285 15.151 18.6632 17.1068 17.5888C17.1506 17.5431 17.2003 17.5013 17.2381 17.4496C17.5386 17.0357 17.8231 16.9999 18.0917 17.4774C19.3512 18.3031 20.6922 18.4901 22.1108 17.9649C22.835 17.6963 23.4459 17.2367 24.0069 16.7134C24.4805 16.2717 24.9998 15.8877 25.5549 15.5554C25.8593 15.3724 26.0125 15.3684 26.0045 15.8021C25.9846 16.978 25.9946 18.1559 25.9926 19.3318C25.9926 19.6461 26.0543 19.9187 26.2254 20.2092C26.5875 20.822 26.7527 21.4985 26.7029 22.2327L26.7031 22.2306ZM32.7117 19.5208C31.1876 20.9891 28.8497 20.6031 27.5445 19.5964C27.3376 19.4352 27.3117 19.2184 27.3137 18.9756C27.3217 17.4854 27.3197 15.9931 27.3237 14.5029C27.3237 13.7548 27.2321 13.6652 26.4979 13.701C25.0176 14.2601 23.782 15.1714 22.6201 16.2378C21.5516 17.2187 19.936 17.2684 18.9611 16.4805C18.7124 16.2796 18.5035 16.0448 18.3762 15.7523C18.205 15.3564 18.1095 15.0281 18.6269 14.7297C19.1362 14.4332 19.5282 13.9477 19.7868 13.3966C20.1867 12.545 19.6873 11.7671 18.7462 11.7551C18.0996 11.7472 17.455 11.7412 16.8083 11.7452C16.5994 11.7452 16.3746 11.7074 16.1517 11.8685C16.4482 12.0158 16.8242 12.1153 16.6889 12.551C16.6312 12.736 16.4661 12.8355 16.2592 12.8176C15.8135 12.7798 15.8612 12.4236 15.8394 12.1053C15.4215 12.5331 15.3778 13.0066 15.718 13.5518C16.0463 14.077 16.4662 14.5268 16.9875 14.863C17.2063 15.0043 17.26 15.1376 17.2003 15.3863C17.0014 16.2259 16.1538 16.9044 15.2067 16.9899C14.1064 17.0894 13.1793 16.7054 12.4132 15.9573C11.5119 15.0759 10.5012 14.3775 9.33924 13.896C9.13231 13.8105 9.07063 13.6911 9.0766 13.4822C9.09053 13.0843 9.08456 12.6883 9.08854 12.2904C9.06467 10.836 8.96717 9.36959 9.12833 7.92709C9.46658 4.89088 11.3488 3.05444 14.0607 1.95018C14.7013 1.68954 15.3619 1.46272 16.0702 1.4468C17.1685 1.22993 18.2668 1.18417 19.3611 1.47864C20.5171 1.53037 21.5437 1.98799 22.5306 2.53116C23.028 2.80374 23.4956 3.1201 23.9313 3.47624L28.7025 8.23748C29.6595 9.30592 30.73 10.2808 31.6671 11.3652C32.3714 12.179 33.1255 12.947 33.603 13.9338C34.5362 15.8638 34.192 18.0982 32.7097 19.5248L32.7117 19.5208Z" fill="#0C2A27"/>
<path d="M13.7185 23.6911C14.6163 23.6911 15.3441 22.9633 15.3441 22.0655C15.3441 21.1678 14.6163 20.44 13.7185 20.44C12.8207 20.44 12.093 21.1678 12.093 22.0655C12.093 22.9633 12.8207 23.6911 13.7185 23.6911Z" fill="#027373"/>
<path fill-rule="evenodd" clip-rule="evenodd" d="M13.0624 22.5353C13.0621 22.5357 13.0619 22.536 13.0617 22.5364C13.0617 22.5363 13.0618 22.5361 13.062 22.5359C13.0627 22.5348 13.0644 22.5324 13.067 22.5288C13.0721 22.5217 13.0808 22.5098 13.0928 22.4944C13.117 22.4633 13.1538 22.4188 13.2014 22.369C13.2994 22.2665 13.4294 22.1562 13.5763 22.0866C13.7176 22.0197 13.8641 21.9945 14.0219 22.0375C14.1842 22.0818 14.4106 22.2125 14.6796 22.5585C14.8145 22.732 15.0646 22.7632 15.238 22.6283C15.4115 22.4934 15.4428 22.2434 15.3079 22.0699C14.9681 21.633 14.6073 21.3722 14.2313 21.2697C13.8508 21.1659 13.5078 21.2385 13.2357 21.3673C12.9693 21.4935 12.7621 21.6768 12.6261 21.819C12.5568 21.8915 12.5025 21.9571 12.4648 22.0056C12.4458 22.0299 12.4309 22.0502 12.4202 22.0651C12.4148 22.0726 12.4104 22.0788 12.4072 22.0836L12.403 22.0896L12.4016 22.0918L12.401 22.0926L12.4007 22.093C12.4006 22.0932 12.4005 22.0934 12.7315 22.3142L12.4005 22.0934C12.2785 22.2762 12.3279 22.5233 12.5107 22.6452C12.6931 22.7669 12.9394 22.7181 13.0617 22.5364C13.0615 22.5366 13.0616 22.5365 13.0617 22.5364C13.0617 22.5363 13.0618 22.5361 13.062 22.5359L13.0622 22.5356L13.0624 22.5353Z" fill="#0C2A27"/>
<path d="M21.5082 23.6911C22.406 23.6911 23.1338 22.9633 23.1338 22.0655C23.1338 21.1678 22.406 20.44 21.5082 20.44C20.6104 20.44 19.8827 21.1678 19.8827 22.0655C19.8827 22.9633 20.6104 23.6911 21.5082 23.6911Z" fill="#F29F05"/>
<path fill-rule="evenodd" clip-rule="evenodd" d="M20.8522 22.5353C20.8519 22.5357 20.8517 22.536 20.8515 22.5364C20.8515 22.5363 20.8516 22.5361 20.8518 22.5359C20.8525 22.5348 20.8542 22.5324 20.8568 22.5288C20.8619 22.5217 20.8706 22.5098 20.8826 22.4944C20.9068 22.4633 20.9436 22.4188 20.9912 22.369C21.0892 22.2665 21.2192 22.1562 21.3661 22.0866C21.5074 22.0197 21.6539 21.9945 21.8117 22.0375C21.974 22.0818 22.2004 22.2125 22.4694 22.5585C22.6044 22.732 22.8544 22.7632 23.0278 22.6283C23.2013 22.4934 23.2326 22.2434 23.0977 22.0699C22.7579 21.633 22.3972 21.3722 22.0211 21.2697C21.6406 21.1659 21.2976 21.2385 21.0255 21.3673C20.7591 21.4935 20.5519 21.6768 20.4159 21.819C20.3466 21.8915 20.2923 21.9571 20.2546 22.0056C20.2356 22.0299 20.2207 22.0502 20.21 22.0651C20.2046 22.0726 20.2002 22.0788 20.197 22.0836L20.1928 22.0896L20.1914 22.0918L20.1908 22.0926L20.1905 22.093C20.1904 22.0932 20.1903 22.0934 20.5213 22.3142L20.1903 22.0934C20.0683 22.2762 20.1177 22.5233 20.3005 22.6452C20.4829 22.7669 20.7292 22.7181 20.8515 22.5364M20.8518 22.5359L20.852 22.5356L20.8522 22.5353" fill="#0C2A27"/>
<path d="M12.0932 10.4082C12.9909 10.4082 13.7187 9.68044 13.7187 8.78268C13.7187 7.88492 12.9909 7.15714 12.0932 7.15714C11.1954 7.15714 10.4676 7.88492 10.4676 8.78268C10.4676 9.68044 11.1954 10.4082 12.0932 10.4082Z" fill="#027373"/>
<path fill-rule="evenodd" clip-rule="evenodd" d="M11.4369 9.25247C11.4367 9.25282 11.4365 9.25317 11.4362 9.25352C11.4363 9.25341 11.4364 9.25326 11.4365 9.25305C11.4373 9.25197 11.439 9.24957 11.4415 9.24598C11.4467 9.23879 11.4554 9.22694 11.4674 9.2115C11.4916 9.18044 11.5284 9.13591 11.576 9.08612C11.674 8.98364 11.8039 8.87337 11.9509 8.80378C12.0922 8.73688 12.2386 8.7116 12.3965 8.75465C12.5587 8.79889 12.7852 8.92964 13.0542 9.27561C13.1891 9.4491 13.4391 9.48037 13.6126 9.34546C13.7861 9.21055 13.8174 8.96054 13.6825 8.78705C13.3427 8.3501 12.9819 8.08938 12.6059 7.98682C12.2254 7.88307 11.8824 7.95566 11.6103 8.08449C11.3439 8.21063 11.1366 8.39396 11.0007 8.53615C10.9314 8.60868 10.877 8.67425 10.8393 8.72271C10.8204 8.74703 10.8055 8.76729 10.7947 8.78228C10.7894 8.78977 10.785 8.79597 10.7817 8.80072L10.7776 8.80675L10.7761 8.80891L10.7756 8.80978L10.7753 8.81016C10.7752 8.81034 10.7751 8.8105 11.1061 9.03133L10.7751 8.8105C10.6531 8.99333 10.7025 9.2404 10.8853 9.36236C11.0676 9.48402 11.3139 9.43522 11.4362 9.25352C11.4361 9.25369 11.4362 9.25361 11.4362 9.25352C11.4363 9.25341 11.4364 9.25326 11.4365 9.25305L11.4368 9.25274L11.4369 9.25247Z" fill="#0C2A27"/>
<path d="M23.2132 10.4082C24.111 10.4082 24.8388 9.68044 24.8388 8.78268C24.8388 7.88492 24.111 7.15714 23.2132 7.15714C22.3155 7.15714 21.5877 7.88492 21.5877 8.78268C21.5877 9.68044 22.3155 10.4082 23.2132 10.4082Z" fill="#F29F05"/>
<path fill-rule="evenodd" clip-rule="evenodd" d="M22.5573 9.25247C22.5571 9.25282 22.5568 9.25317 22.5566 9.25352C22.5567 9.25341 22.5568 9.25326 22.5569 9.25305C22.5577 9.25197 22.5593 9.24957 22.5619 9.24598C22.5671 9.23879 22.5758 9.22694 22.5878 9.2115C22.6119 9.18044 22.6487 9.13591 22.6963 9.08612C22.7943 8.98364 22.9243 8.87337 23.0713 8.80378C23.2126 8.73688 23.359 8.7116 23.5168 8.75465C23.6791 8.79889 23.9055 8.92964 24.1746 9.27561C24.3095 9.4491 24.5595 9.48037 24.733 9.34546C24.9065 9.21055 24.9377 8.96054 24.8028 8.78705C24.463 8.3501 24.1023 8.08938 23.7262 7.98682C23.3457 7.88307 23.0027 7.95566 22.7307 8.08449C22.4643 8.21063 22.257 8.39396 22.1211 8.53615C22.0517 8.60868 21.9974 8.67425 21.9597 8.72271C21.9408 8.74703 21.9258 8.76729 21.9151 8.78228C21.9097 8.78977 21.9054 8.79597 21.9021 8.80072L21.898 8.80675L21.8965 8.80891L21.8959 8.80978L21.8957 8.81016C21.8955 8.81033 21.8954 8.8105 22.2265 9.03133L21.8954 8.8105C21.7735 8.99333 21.8228 9.2404 22.0056 9.36236C22.188 9.48402 22.4343 9.43522 22.5566 9.25352M22.5569 9.25305L22.5571 9.25274L22.5573 9.25247" fill="#0C2A27"/>
<path d="M17.7399 16.4209H17.7379C17.0357 16.4209 16.4665 16.9902 16.4665 17.6923V17.6943C16.4665 18.3965 17.0357 18.9657 17.7379 18.9657H17.7399C18.442 18.9657 19.0113 18.3965 19.0113 17.6943V17.6923C19.0113 16.9902 18.442 16.4209 17.7399 16.4209Z" fill="#DF6F7D"/>
<path fill-rule="evenodd" clip-rule="evenodd" d="M17.7379 16.8189C17.2555 16.8189 16.8644 17.2099 16.8644 17.6923V17.6943C16.8644 18.1767 17.2555 18.5678 17.7379 18.5678H17.7399C18.2223 18.5678 18.6133 18.1767 18.6133 17.6943V17.6923C18.6133 17.2099 18.2223 16.8189 17.7399 16.8189H17.7379ZM16.0686 17.6923C16.0686 16.7704 16.816 16.023 17.7379 16.023H17.7399C18.6618 16.023 19.4092 16.7704 19.4092 17.6923V17.6943C19.4092 18.6163 18.6618 19.3636 17.7399 19.3636H17.7379C16.816 19.3636 16.0686 18.6163 16.0686 17.6943V17.6923Z" fill="#0C2A27"/>
</svg>
